<?xml version="1.0" standalone="no"?>
<!DOCTYPE svg PUBLIC "-//W3C//DTD SVG 20010904//EN"
 "http://www.w3.org/TR/2001/REC-SVG-20010904/DTD/svg10.dtd">
<svg version="1.0" xmlns="http://www.w3.org/2000/svg"
 width="100.000000pt" height="100.000000pt" viewBox="0 0 100.000000 100.000000"
 preserveAspectRatio="xMidYMid meet">

<g transform="translate(0.000000,100.000000) scale(0.100000,-0.100000)"
fill="#000000" stroke="none">
<path d="M480 800 c0 -173 1 -180 20 -180 19 0 20 7 20 180 0 173 -1 180 -20
180 -19 0 -20 -7 -20 -180z"/>
<path d="M348 891 c-104 -41 -199 -137 -239 -241 -25 -66 -25 -90 1 -90 11 0
20 7 20 15 0 8 10 40 22 72 15 42 38 75 82 119 44 44 77 67 119 82 32 12 64
22 72 22 8 0 15 9 15 20 0 25 -28 26 -92 1z"/>
<path d="M560 891 c0 -12 6 -21 15 -21 8 0 40 -10 72 -22 80 -29 172 -121 201
-201 12 -32 22 -64 22 -72 0 -9 9 -15 21 -15 19 0 21 4 16 37 -22 134 -176
288 -310 310 -33 5 -37 3 -37 -16z"/>
<path d="M384 684 c-38 -25 -75 -69 -90 -106 -13 -35 33 -20 55 17 11 20 36
45 56 56 20 12 35 29 35 40 0 25 -8 24 -56 -7z"/>
<path d="M560 692 c0 -12 14 -28 35 -41 20 -11 45 -36 56 -56 22 -37 68 -52
55 -17 -20 51 -77 108 -128 128 -14 4 -18 1 -18 -14z"/>
<path d="M460 540 c-11 -11 -20 -29 -20 -40 0 -11 9 -29 20 -40 11 -11 29 -20
40 -20 26 0 60 34 60 60 0 11 -9 29 -20 40 -11 11 -29 20 -40 20 -11 0 -29 -9
-40 -20z"/>
<path d="M20 500 c0 -19 7 -20 180 -20 173 0 180 1 180 20 0 19 -7 20 -180 20
-173 0 -180 -1 -180 -20z"/>
<path d="M620 500 c0 -19 7 -20 180 -20 173 0 180 1 180 20 0 19 -7 20 -180
20 -173 0 -180 -1 -180 -20z"/>
<path d="M93 403 c22 -134 176 -288 310 -310 33 -5 37 -3 37 16 0 12 -6 21
-15 21 -8 0 -40 10 -72 22 -42 15 -75 38 -119 82 -44 44 -67 77 -82 119 -12
32 -22 64 -22 72 0 9 -9 15 -21 15 -19 0 -21 -4 -16 -37z"/>
<path d="M294 423 c20 -52 77 -109 129 -129 34 -13 19 33 -18 55 -20 11 -45
36 -56 56 -22 37 -68 52 -55 18z"/>
<path d="M651 405 c-11 -20 -36 -45 -56 -56 -37 -22 -52 -68 -17 -55 51 20
108 77 128 129 13 34 -33 19 -55 -18z"/>
<path d="M870 425 c0 -8 -10 -40 -22 -72 -29 -80 -121 -172 -201 -201 -32 -12
-64 -22 -72 -22 -9 0 -15 -9 -15 -21 0 -19 4 -21 37 -16 134 22 288 176 310
310 5 33 3 37 -16 37 -12 0 -21 -6 -21 -15z"/>
<path d="M480 200 c0 -173 1 -180 20 -180 19 0 20 7 20 180 0 173 -1 180 -20
180 -19 0 -20 -7 -20 -180z"/>
</g>
</svg>
