<svg id="visual" viewBox="0 0 900 600" width="900" height="600" xmlns="http://www.w3.org/2000/svg" xmlns:xlink="http://www.w3.org/1999/xlink" version="1.1"><rect x="0" y="0" width="900" height="600" fill="#FFFFFF"></rect><path d="M0 309L21.5 296.5C43 284 86 259 128.8 254.2C171.7 249.3 214.3 264.7 257.2 255.7C300 246.7 343 213.3 385.8 221.7C428.7 230 471.3 280 514.2 286.5C557 293 600 256 642.8 253.2C685.7 250.3 728.3 281.7 771.2 302.5C814 323.3 857 333.7 878.5 338.8L900 344L900 601L878.5 601C857 601 814 601 771.2 601C728.3 601 685.7 601 642.8 601C600 601 557 601 514.2 601C471.3 601 428.7 601 385.8 601C343 601 300 601 257.2 601C214.3 601 171.7 601 128.8 601C86 601 43 601 21.5 601L0 601Z" fill="#5926a5"></path><path d="M0 246L21.5 246C43 246 86 246 128.8 271.2C171.7 296.3 214.3 346.7 257.2 360.2C300 373.7 343 350.3 385.8 335C428.7 319.7 471.3 312.3 514.2 322.8C557 333.3 600 361.7 642.8 366.2C685.7 370.7 728.3 351.3 771.2 329.7C814 308 857 284 878.5 272L900 260L900 601L878.5 601C857 601 814 601 771.2 601C728.3 601 685.7 601 642.8 601C600 601 557 601 514.2 601C471.3 601 428.7 601 385.8 601C343 601 300 601 257.2 601C214.3 601 171.7 601 128.8 601C86 601 43 601 21.5 601L0 601Z" fill="#612eac"></path><path d="M0 277L21.5 285.7C43 294.3 86 311.7 128.8 338.2C171.7 364.7 214.3 400.3 257.2 395.7C300 391 343 346 385.8 338.7C428.7 331.3 471.3 361.7 514.2 373.5C557 385.3 600 378.7 642.8 377.5C685.7 376.3 728.3 380.7 771.2 384C814 387.3 857 389.7 878.5 390.8L900 392L900 601L878.5 601C857 601 814 601 771.2 601C728.3 601 685.7 601 642.8 601C600 601 557 601 514.2 601C471.3 601 428.7 601 385.8 601C343 601 300 601 257.2 601C214.3 601 171.7 601 128.8 601C86 601 43 601 21.5 601L0 601Z" fill="#6734b4"></path><path d="M0 461L21.5 446.2C43 431.3 86 401.7 128.8 392.8C171.7 384 214.3 396 257.2 404.3C300 412.7 343 417.3 385.8 428.3C428.7 439.3 471.3 456.7 514.2 448.5C557 440.3 600 406.7 642.8 398C685.7 389.3 728.3 405.7 771.2 404.3C814 403 857 384 878.5 374.5L900 365L900 601L878.5 601C857 601 814 601 771.2 601C728.3 601 685.7 601 642.8 601C600 601 557 601 514.2 601C471.3 601 428.7 601 385.8 601C343 601 300 601 257.2 601C214.3 601 171.7 601 128.8 601C86 601 43 601 21.5 601L0 601Z" fill="#6a37b7"></path><path d="M0 425L21.5 424.2C43 423.3 86 421.7 128.8 421.7C171.7 421.7 214.3 423.3 257.2 429.8C300 436.3 343 447.7 385.8 452.5C428.7 457.3 471.3 455.7 514.2 449.7C557 443.7 600 433.3 642.8 428.8C685.7 424.3 728.3 425.7 771.2 440.3C814 455 857 483 878.5 497L900 511L900 601L878.5 601C857 601 814 601 771.2 601C728.3 601 685.7 601 642.8 601C600 601 557 601 514.2 601C471.3 601 428.7 601 385.8 601C343 601 300 601 257.2 601C214.3 601 171.7 601 128.8 601C86 601 43 601 21.5 601L0 601Z" fill="#6734b4"></path><path d="M0 487L21.5 479.5C43 472 86 457 128.8 453.3C171.7 449.7 214.3 457.3 257.2 470.7C300 484 343 503 385.8 499.7C428.7 496.3 471.3 470.7 514.2 461.2C557 451.7 600 458.3 642.8 471.3C685.7 484.3 728.3 503.7 771.2 507.5C814 511.3 857 499.7 878.5 493.8L900 488L900 601L878.5 601C857 601 814 601 771.2 601C728.3 601 685.7 601 642.8 601C600 601 557 601 514.2 601C471.3 601 428.7 601 385.8 601C343 601 300 601 257.2 601C214.3 601 171.7 601 128.8 601C86 601 43 601 21.5 601L0 601Z" fill="#612eac"></path><path d="M0 529L21.5 531C43 533 86 537 128.8 536.2C171.7 535.3 214.3 529.7 257.2 526.8C300 524 343 524 385.8 520.8C428.7 517.7 471.3 511.3 514.2 508.5C557 505.7 600 506.3 642.8 507.2C685.7 508 728.3 509 771.2 513.8C814 518.7 857 527.3 878.5 531.7L900 536L900 601L878.5 601C857 601 814 601 771.2 601C728.3 601 685.7 601 642.8 601C600 601 557 601 514.2 601C471.3 601 428.7 601 385.8 601C343 601 300 601 257.2 601C214.3 601 171.7 601 128.8 601C86 601 43 601 21.5 601L0 601Z" fill="#5926a5"></path></svg>