<?xml version="1.0" standalone="no"?>
<!DOCTYPE svg PUBLIC "-//W3C//DTD SVG 20010904//EN"
 "http://www.w3.org/TR/2001/REC-SVG-20010904/DTD/svg10.dtd">
<svg version="1.0" xmlns="http://www.w3.org/2000/svg"
 width="100.000000pt" height="100.000000pt" viewBox="0 0 100.000000 100.000000"
 preserveAspectRatio="xMidYMid meet">

<g transform="translate(0.000000,100.000000) scale(0.100000,-0.100000)"
fill="#000000" stroke="none">
<path d="M88 894 c-5 -4 -8 -31 -8 -61 0 -46 -2 -53 -20 -53 -11 0 -29 -9 -40
-20 -19 -19 -20 -33 -20 -300 0 -259 1 -281 18 -298 16 -16 41 -20 148 -25 71
-3 175 -13 232 -22 95 -15 109 -15 205 0 56 9 160 19 231 22 107 5 132 9 148
25 17 17 18 39 18 298 0 267 -1 281 -20 300 -11 11 -29 20 -40 20 -16 0 -19 8
-22 58 l-3 57 -113 -2 c-62 -2 -155 -9 -207 -18 -84 -13 -105 -13 -186 0 -112
18 -311 30 -321 19z m307 -58 l80 -11 3 -301 2 -300 -82 12 c-46 7 -127 15
-180 19 l-98 7 0 300 0 300 98 -7 c53 -4 133 -12 177 -19z m485 -275 l0 -299
-97 -7 c-54 -4 -135 -12 -181 -19 l-82 -12 2 300 3 301 45 7 c63 11 206 25
263 27 l47 1 0 -299z m-798 -78 l3 -258 105 -7 c58 -4 151 -14 208 -22 90 -14
114 -14 205 0 56 8 149 18 207 22 l105 7 3 258 c2 239 4 258 20 255 16 -3 17
-25 17 -278 l0 -275 -122 -7 c-67 -3 -169 -14 -227 -22 -96 -14 -116 -14 -212
0 -58 8 -160 19 -227 22 l-122 7 -3 265 c-1 146 0 270 3 277 2 7 11 13 20 13
13 0 15 -35 17 -257z"/>
<path d="M680 740 c0 -12 -10 -24 -24 -30 -52 -19 -72 -88 -38 -130 9 -12 44
-36 77 -53 64 -34 79 -61 50 -91 -28 -27 -73 -21 -93 14 -16 28 -52 42 -52 20
0 -24 27 -63 52 -76 16 -8 28 -23 28 -34 0 -13 7 -20 20 -20 13 0 20 7 20 20
0 12 10 24 24 30 28 10 56 47 56 72 0 38 -25 70 -74 95 -88 44 -106 72 -68
106 30 28 70 22 90 -13 16 -28 52 -42 52 -20 0 24 -30 67 -54 78 -16 7 -26 20
-26 32 0 13 -7 20 -20 20 -13 0 -20 -7 -20 -20z"/>
</g>
</svg>
