<?xml version="1.0" encoding="UTF-8"?>
<svg version="1.1" xmlns="http://www.w3.org/2000/svg" width="96" height="96">
<path d="M0 0 C1.875 0.375 1.875 0.375 4 1 C7.77361622 1.16558357 7.77361622 1.16558357 10.4375 0.375 C13 0 13 0 15.625 1.0625 C16.40875 1.371875 17.1925 1.68125 18 2 C18.99 1.34 19.98 0.68 21 0 C23.84120234 0.35515029 26.28047752 1.09349251 29 2 C29.99 1.34 30.98 0.68 32 0 C34.9375 0.375 34.9375 0.375 38 1 C41.85808183 1.1359695 41.85808183 1.1359695 45 0.375 C48.20432541 -0.02554068 49.3513483 0.26818927 52 2 C52.66 1.34 53.32 0.68 54 0 C57.53571429 0.53571429 57.53571429 0.53571429 59 2 C59.08434265 3.51498847 59.10820424 5.0334493 59.10546875 6.55078125 C59.12029297 7.47697266 59.13511719 8.40316406 59.15039062 9.35742188 C59.17498119 11.31560774 59.18042443 13.27413462 59.16601562 15.23242188 C59.22798697 17.94225992 59.34743512 20.36759076 60 23 C62.77184912 25.44354166 62.77184912 25.44354166 66 27 C70.05630398 32.22259857 69.77397544 37.65340142 69 44 C67.21732829 47.76341806 66.23575603 49.48094552 62.38671875 51.09765625 C59.86556277 52.70030409 59.86556277 52.70030409 59.58325195 54.8449707 C59.41942305 58.00662398 59.48476335 61.14481272 59.55078125 64.30859375 C59.54433594 65.09105469 59.53789063 65.87351562 59.53125 66.6796875 C59.54736328 67.38851074 59.56347656 68.09733398 59.58007812 68.82763672 C58.57676515 72.58499314 57.21569846 73.77472326 54 76 C49.66906062 76.74436469 45.3850697 76.67628138 41 76.62890625 C39.7315625 76.63131821 38.463125 76.63373016 37.15625 76.63621521 C34.47569706 76.63523614 31.79737937 76.62443033 29.1171875 76.59692383 C25.69044258 76.56283952 22.26519557 76.56886294 18.83837891 76.5875864 C15.55883271 76.60072597 12.27951392 76.58243252 9 76.56640625 C7.7728125 76.57136612 6.545625 76.57632599 5.28125 76.58143616 C4.1365625 76.56559982 2.991875 76.54976349 1.8125 76.53344727 C0.80832031 76.52724869 -0.19585937 76.52105011 -1.23046875 76.5146637 C-4.76693412 75.85748016 -6.46972729 74.51614556 -9 72 C-9.48828125 68.984375 -9.48828125 68.984375 -9.3125 65.75 C-9.26738281 64.67234375 -9.22226563 63.5946875 -9.17578125 62.484375 C-9.08876953 61.25460938 -9.08876953 61.25460938 -9 60 C-6.69 60 -4.38 60 -2 60 C-2.00666183 58.91671921 -2.00666183 58.91671921 -2.01345825 57.81155396 C-2.05349375 51.01333978 -2.08396338 44.21514316 -2.10362434 37.41684151 C-2.11407198 33.92156073 -2.12824883 30.42637717 -2.15087891 26.93115234 C-2.17671953 22.91502944 -2.18646466 18.89900903 -2.1953125 14.8828125 C-2.20563507 13.62445587 -2.21595764 12.36609924 -2.22659302 11.0696106 C-2.22674408 9.90855804 -2.22689514 8.74750549 -2.22705078 7.55126953 C-2.231492 6.52534698 -2.23593323 5.49942444 -2.24050903 4.44241333 C-2 2 -2 2 0 0 Z M11 4 C10.01 4.66 9.02 5.32 8 6 C6.02 6 4.04 6 2 6 C2 23.82 2 41.64 2 60 C16.85 60 31.7 60 47 60 C47 63.3 47 66.6 47 70 C47.99 70.99 47.99 70.99 49 72 C52.30683466 71.71016731 52.30683466 71.71016731 55 70 C55.07325168 67.13732433 55.09238205 64.299281 55.0625 61.4375 C55.05798828 60.63119141 55.05347656 59.82488281 55.04882812 58.99414062 C55.03700518 56.99606244 55.01906914 54.99802217 55 53 C54.40832031 52.91363281 53.81664062 52.82726563 53.20703125 52.73828125 C47.65855945 51.75168512 44.65250778 50.56563473 41 46 C39.66172099 43.32344199 39.79421444 41.17565948 39.75 38.1875 C39.72421875 37.14980469 39.6984375 36.11210938 39.671875 35.04296875 C40.04406395 31.59135935 40.96540816 29.78289125 43 27 C47.17562365 23.75229271 49.30658964 23.81334434 55 23 C55 17.39 55 11.78 55 6 C53.02 6 51.04 6 49 6 C46.625 5 46.625 5 45 4 C44.34 4.66 43.68 5.32 43 6 C40.19407976 6.1829948 37.77529614 6.22508598 35.0625 5.4375 C32.78139489 4.82928612 32.78139489 4.82928612 29.5625 5.5 C26.24310503 5.96588 24.20056794 5.75307481 21 5 C20.67 5.33 20.34 5.66 20 6 C15.96839809 6.26293056 14.44107266 6.29404844 11 4 Z M44 32 C42.38570077 35.22859847 42.40429343 38.50993653 43 42 C44.73602105 45.02508145 46.83580137 47.41790069 50 49 C55.12370398 49.60728845 55.12370398 49.60728845 59.82421875 47.953125 C63.62752744 44.82207185 64.88663367 43.13366332 65.375 38.25 C65.35058775 34.89941932 64.75601354 33.15105468 62.625 30.5625 C59.0951414 27.11668565 57.0716348 26.60444164 52.10546875 26.640625 C48.38406547 27.27581814 46.59687151 29.33979016 44 32 Z M-6 64 C-5.63936201 69.74813012 -5.63936201 69.74813012 -3 72 C-0.89849837 72.2918018 -0.89849837 72.2918018 1.54150391 72.22705078 C2.48232819 72.22689972 3.42315247 72.22674866 4.39248657 72.22659302 C5.91910416 72.21110916 5.91910416 72.21110916 7.4765625 72.1953125 C8.51694672 72.1924826 9.55733093 72.18965271 10.62924194 72.18673706 C13.96127694 72.17551704 17.29304586 72.15040915 20.625 72.125 C22.88020446 72.11497256 25.13541312 72.1058463 27.390625 72.09765625 C32.92717454 72.07557178 38.46356827 72.04207639 44 72 C43.505 68.04 43.505 68.04 43 64 C26.83 64 10.66 64 -6 64 Z " fill="#7E41FF" transform="translate(18,10)"/>
<path d="M0 0 C9.24 0 18.48 0 28 0 C28 1.98 28 3.96 28 6 C18.76 6 9.52 6 0 6 C0 4.02 0 2.04 0 0 Z " fill="#B6B5FF" transform="translate(25,24)"/>
<path d="M0 0 C9.24 0 18.48 0 28 0 C28 1.32 28 2.64 28 4 C18.76 4 9.52 4 0 4 C0 2.68 0 1.36 0 0 Z " fill="#7F41FF" transform="translate(25,49)"/>
<path d="M0 0 C9.24 0 18.48 0 28 0 C28 1.32 28 2.64 28 4 C18.76 4 9.52 4 0 4 C0 2.68 0 1.36 0 0 Z " fill="#5A50FF" transform="translate(25,34)"/>
<path d="M0 0 C0.59296875 0.22558594 1.1859375 0.45117188 1.796875 0.68359375 C-0.18232809 5.36171014 -3.04094925 9.65656027 -7.703125 11.87109375 C-10.203125 11.68359375 -10.203125 11.68359375 -13.015625 9.24609375 C-13.7375 8.40046875 -14.459375 7.55484375 -15.203125 6.68359375 C-14.543125 5.69359375 -13.883125 4.70359375 -13.203125 3.68359375 C-10.728125 4.67359375 -10.728125 4.67359375 -8.203125 5.68359375 C-7.81640625 5.23886719 -7.4296875 4.79414062 -7.03125 4.3359375 C-6.51046875 3.77003906 -5.9896875 3.20414063 -5.453125 2.62109375 C-4.94265625 2.05261719 -4.4321875 1.48414063 -3.90625 0.8984375 C-2.203125 -0.31640625 -2.203125 -0.31640625 0 0 Z " fill="#7941FF" transform="translate(79.203125,42.31640625)"/>
<path d="M0 0 C9.24 0 18.48 0 28 0 C28 0.99 28 1.98 28 3 C18.76 3 9.52 3 0 3 C0 2.01 0 1.02 0 0 Z " fill="#6D48FF" transform="translate(25,42)"/>
<path d="M0 0 C1.32 0 2.64 0 4 0 C4 1.65 4 3.3 4 5 C2.68 5 1.36 5 0 5 C0 3.35 0 1.7 0 0 Z " fill="#9636FF" transform="translate(37,58)"/>
<path d="M0 0 C1.32 0 2.64 0 4 0 C4 1.65 4 3.3 4 5 C2.68 5 1.36 5 0 5 C0 3.35 0 1.7 0 0 Z " fill="#9636FF" transform="translate(31,58)"/>
<path d="M0 0 C1.32 0 2.64 0 4 0 C4 1.65 4 3.3 4 5 C2.68 5 1.36 5 0 5 C0 3.35 0 1.7 0 0 Z " fill="#9636FF" transform="translate(25,58)"/>
</svg>
