<?xml version="1.0" encoding="UTF-8"?>
<!DOCTYPE svg PUBLIC "-//W3C//DTD SVG 1.1//EN" "http://www.w3.org/Graphics/SVG/1.1/DTD/svg11.dtd">
<svg xmlns="http://www.w3.org/2000/svg" version="1.1" width="512px" height="512px" style="shape-rendering:geometricPrecision; text-rendering:geometricPrecision; image-rendering:optimizeQuality; fill-rule:evenodd; clip-rule:evenodd" xmlns:xlink="http://www.w3.org/1999/xlink">
<g><path style="opacity:0.982" fill="#000000" d="M 511.5,102.5 C 511.5,110.167 511.5,117.833 511.5,125.5C 502.319,146.739 486.653,153.573 464.5,146C 451.353,137.542 445.186,125.375 446,109.5C 442.683,98.8477 435.85,91.3477 425.5,87C 368.877,85.8413 312.211,85.3413 255.5,85.5C 198.789,85.3413 142.123,85.8413 85.5,87C 69.1773,94.4556 61.6773,107.289 63,125.5C 56.784,142.527 44.6173,150.36 26.5,149C 12.9621,146.29 3.96206,138.457 -0.5,125.5C -0.5,117.833 -0.5,110.167 -0.5,102.5C 9.31366,56.1891 37.647,29.0225 84.5,21C 198.5,20.3333 312.5,20.3333 426.5,21C 473.353,29.0225 501.686,56.1891 511.5,102.5 Z"/></g>
<g><path style="opacity:0.98" fill="#000000" d="M -0.5,347.5 C -0.5,302.5 -0.5,257.5 -0.5,212.5C 6.40921,188.762 22.0759,174.595 46.5,170C 61.5,169.333 76.5,169.333 91.5,170C 119.405,174.236 137.905,189.736 147,216.5C 154.16,252.01 141.66,277.843 109.5,294C 104.625,295.802 99.6255,297.135 94.5,298C 77.1699,298.5 59.8365,298.667 42.5,298.5C 42.6666,314.503 42.4999,330.503 42,346.5C 37.5166,358.995 28.6833,364.161 15.5,362C 7.39321,360.053 2.05987,355.22 -0.5,347.5 Z M 49.5,213.5 C 63.9058,213.051 78.2391,213.551 92.5,215C 106.709,223.541 109.209,234.707 100,248.5C 97.3308,251.164 94.1641,252.998 90.5,254C 74.5431,255.404 58.5431,255.904 42.5,255.5C 42.3335,244.162 42.5001,232.828 43,221.5C 44.2767,218.062 46.4433,215.395 49.5,213.5 Z"/></g>
<g><path style="opacity:0.972" fill="#000000" d="M 217.5,169.5 C 232.504,169.333 247.504,169.5 262.5,170C 289.24,173.739 307.407,188.239 317,213.5C 325.146,244.9 316.313,270.233 290.5,289.5C 300.249,303.996 309.749,318.663 319,333.5C 321.788,347.429 316.621,356.929 303.5,362C 293.923,363.919 286.09,361.086 280,353.5C 267.957,335.247 255.791,317.081 243.5,299C 233.506,298.5 223.506,298.334 213.5,298.5C 213.667,314.17 213.5,329.837 213,345.5C 209.073,358.72 200.24,364.22 186.5,362C 176.775,359.608 171.275,353.441 170,343.5C 169.333,302.5 169.333,261.5 170,220.5C 173.591,191.921 189.424,174.921 217.5,169.5 Z M 220.5,213.5 C 234.906,213.051 249.239,213.551 263.5,215C 277.707,223.498 280.207,234.664 271,248.5C 268.331,251.164 265.164,252.998 261.5,254C 245.549,255.422 229.549,255.922 213.5,255.5C 213.333,243.829 213.5,232.162 214,220.5C 215.694,217.642 217.861,215.309 220.5,213.5 Z"/></g>
<g><path style="opacity:0.974" fill="#000000" d="M 511.5,232.5 C 511.5,254.833 511.5,277.167 511.5,299.5C 502.062,338.932 477.062,359.932 436.5,362.5C 403.437,361.242 380.271,345.576 367,315.5C 365.259,310.946 363.926,306.279 363,301.5C 361,277.833 361,254.167 363,230.5C 372.821,192.514 397.321,172.181 436.5,169.5C 477.11,172.123 502.11,193.123 511.5,232.5 Z M 430.5,213.5 C 450.438,212.282 462.938,221.282 468,240.5C 468.667,257.5 468.667,274.5 468,291.5C 464.332,308.167 453.998,317.5 437,319.5C 420.91,317.746 410.576,309.08 406,293.5C 405.333,275.167 405.333,256.833 406,238.5C 409.683,225.651 417.85,217.318 430.5,213.5 Z"/></g>
<g><path style="opacity:0.983" fill="#000000" d="M 511.5,407.5 C 511.5,414.167 511.5,420.833 511.5,427.5C 504.308,459.861 484.641,480.361 452.5,489C 386.863,490.156 321.197,490.656 255.5,490.5C 189.803,490.656 124.137,490.156 58.5,489C 26.8089,480.476 7.14224,460.31 -0.5,428.5C -0.5,421.5 -0.5,414.5 -0.5,407.5C 7.89311,386.142 23.2264,378.975 45.5,386C 58.5167,393.179 65.0167,404.346 65,419.5C 66.1667,422 68,423.833 70.5,425C 193.833,425.667 317.167,425.667 440.5,425C 443,423.833 444.833,422 446,419.5C 447.641,393.278 461.475,381.445 487.5,384C 500.015,387.349 508.015,395.182 511.5,407.5 Z"/></g>
</svg>
